<svg width="500" height="500" viewBox="0 0 500 500" fill="none" xmlns="http://www.w3.org/2000/svg">
<g clip-path="url(#clip0_4_5)">
<rect width="500" height="500" fill="url(#paint0_linear_4_5)"/>
<path d="M407.233 186.311V142.524H377.379V218.155H427.136V263.932H455V186.311H407.233Z" fill="black"/>
<path d="M411.214 116.65V92.767H335.583V146.505H287.816V172.379H361.456V116.65H411.214Z" fill="black"/>
<path d="M281.845 52.9612H307.718H309.709V126.602H263.932V176.359H236.068V98.7379H281.845V52.9612Z" fill="black"/>
<path d="M263.932 70.8738V45H188.301V90.7767H140.534V118.641H216.165V70.8738H263.932Z" fill="black"/>
<path d="M116.65 138.544V88.7864H90.7767V168.398H136.553V214.175H162.427V138.544H116.65Z" fill="black"/>
<path d="M118.641 190.291H52.9612V217.541H91.3857V259.951H174.369V236.068H118.641V190.291Z" fill="black"/>
<path d="M45 309.709V238.058H72.8641V283.835H116.65V359.466H91.3857V309.709H45Z" fill="black"/>
<path d="M138.544 325.631H212.184V351.505H166.408V409.223H86.7961V381.359H138.544V325.631Z" fill="black"/>
<path d="M236.068 325.631H263.932V401.262H218.155V447.039H190.291V375.388H236.068V325.631Z" fill="black"/>
<path d="M236.068 455V429.126H281.845V381.359H359.466V409.223H311.699V455H236.068Z" fill="black"/>
<path d="M409.223 409.223V333.592H363.447V285.825H335.583V363.447H381.359V409.223H409.223Z" fill="black"/>
<path d="M447.039 309.709V281.845H407.233V236.068H323.641V263.932H377.379V309.709H447.039Z" fill="black"/>
<path d="M281.845 190.291H357.476V218.155H309.709V250H281.845V190.291Z" fill="black"/>
<path d="M190.291 144.515H216.165V192.282H263.932V250H236.068V218.155H190.291V144.515Z" fill="black"/>
<path d="M216.165 305.728V250H190.291V281.845H144.515V305.728H216.165Z" fill="black"/>
<path d="M309.709 355.485V271.893H236.068V301.748H281.845V355.485H309.709Z" fill="black"/>
</g>
<defs>
<linearGradient id="paint0_linear_4_5" x1="1.11003e-06" y1="-18.5" x2="512" y2="511" gradientUnits="userSpaceOnUse">
<stop stop-color="#8B5CF6"/>
<stop offset="1" stop-color="#2DD4BF"/>
</linearGradient>
<clipPath id="clip0_4_5">
<rect width="500" height="500" rx="50" fill="white"/>
</clipPath>
</defs>
</svg>
